<?xml version="1.0" standalone="no"?><!DOCTYPE svg PUBLIC "-//W3C//DTD SVG 1.1//EN" "http://www.w3.org/Graphics/SVG/1.1/DTD/svg11.dtd"><svg t="1530363723904" class="icon" style="" viewBox="0 0 1024 1024" version="1.1" xmlns="http://www.w3.org/2000/svg" p-id="1499" xmlns:xlink="http://www.w3.org/1999/xlink" width="48" height="48"><defs><style type="text/css"></style></defs><path d="M768 160 256 160C204.8 160 160 204.8 160 256l0 512c0 51.2 44.8 96 96 96l512 0c51.2 0 96-44.8 96-96L864 256C864 204.8 819.2 160 768 160zM729.6 409.6l-256 256c-6.4 6.4-12.8 6.4-25.6 6.4s-19.2 0-25.6-6.4l-128-128c-12.8-12.8-12.8-32 0-44.8s32-12.8 44.8 0L448 595.2l230.4-230.4c12.8-12.8 32-12.8 44.8 0S736 396.8 729.6 409.6z" fill="#d81e06" p-id="1500"></path></svg>