<svg version="1.0" xmlns="http://www.w3.org/2000/svg" width="100%" height="100%" viewBox="0 0 340.000000 250.000000" preserveAspectRatio="xMidYMid meet" color-interpolation-filters="sRGB" class="el-tooltip" style="margin: auto;">
<rect data-v-16bc8e0b="" x="0" y="0" width="100%" height="100%" fill="#fff" fill-opacity="0"></rect>
<rect data-v-16bc8e0b="" x="0" y="0" width="100%" height="100%" fill="url(#watermark)" fill-opacity="1" class="watermarklayer"></rect>
<g data-v-16bc8e0b="" fill="#f56040" transform="translate(116.42000198364258,100.26000022888184)">
<g>
<rect x="0" y="0" width="107.15999603271484" height="49.47999954223633"></rect>
  <g transform="translate(10,10)">
    <g fill="#fff">
      <g><path transform="translate(-1.12,28.72)" d="M14.60-1.40C14.48-1.44 14.36-1.40 14.32-1.28C14.20-0.96 13.84-0.56 13.40-0.56C13.04-0.56 12.80-0.88 12.80-1.68L12.80-9.76C12.80-14.76 10.68-17.04 7.12-17.04C4.40-17.04 2.68-15.12 2.68-13.60C2.68-12.64 3.12-11.60 4.28-11.60C5.52-11.60 6-12.40 6-13.20C6-13.60 5.92-13.84 5.84-14.08C5.76-14.28 5.72-14.48 5.72-14.76C5.72-15.88 6.36-16.16 7.12-16.16C8.24-16.16 9.24-15.68 9.24-12.68L9.24-9.72C9.24-9.12 7.76-8.96 6.16-8.80C6.04-8.80 5.84-8.76 5.72-8.76C4.40-8.60 1.12-7.88 1.12-3.60C1.12-0.36 3.64 0.72 5.96 0.72C7.56 0.72 8.88-0.12 9.52-1.44C9.92-0.16 11.04 0.72 12.36 0.72C13.76 0.72 14.72-0.24 14.88-1.12C14.92-1.24 14.80-1.36 14.68-1.36ZM9.24-3.56C9.24-1.92 8.12-0.32 6.56-0.32C5.36-0.32 4.64-1.04 4.64-3.60C4.64-7.04 5.40-7.64 6.48-7.88C6.72-7.96 7.08-8 7.40-8.04C8-8.12 8.68-8.24 9.24-8.52ZM23.64 0.40C23.76 0.40 23.84 0.32 23.84 0.20L23.84-0.28C23.84-0.40 23.76-0.48 23.64-0.48L21.80-0.48L21.80-16.44C21.80-16.56 21.72-16.64 21.60-16.64L16.32-16.64C16.20-16.64 16.12-16.56 16.12-16.44L16.12-15.96C16.12-15.88 16.20-15.80 16.32-15.80L18.24-15.80L18.24-0.48L16.32-0.48C16.20-0.48 16.12-0.40 16.12-0.28L16.12 0.20C16.12 0.32 16.20 0.40 16.32 0.40ZM22.56-26C22.56-27.48 21.44-28.68 20-28.68C18.52-28.68 17.40-27.48 17.40-26C17.40-24.56 18.52-23.40 20-23.40C21.44-23.40 22.56-24.56 22.56-26ZM36.92-13.84C36.92-15.64 35.68-17 33.84-17C32.60-17 31.56-16.36 30.84-14.92L30.84-16.44C30.84-16.56 30.76-16.64 30.64-16.64L25.40-16.64C25.32-16.64 25.24-16.56 25.24-16.44L25.24-15.96C25.24-15.88 25.32-15.80 25.40-15.80L27.24-15.80L27.24-0.48L25.40-0.48C25.32-0.48 25.24-0.40 25.24-0.28L25.24 0.20C25.24 0.32 25.32 0.40 25.40 0.40L32.68 0.40C32.80 0.40 32.88 0.32 32.88 0.20L32.88-0.28C32.88-0.40 32.80-0.48 32.68-0.48L30.84-0.48L30.84-12.44C31.48-15.12 32.24-15.80 32.96-15.80C33.36-15.80 33.68-15.44 33.68-14.84C33.68-14.56 33.60-14.32 33.52-14.20C33.36-13.92 33.24-13.64 33.24-13.12C33.24-12.24 33.88-11.48 35.04-11.48C36.04-11.48 36.92-12.40 36.92-13.84ZM47.12-3.24C47-3.32 46.88-3.24 46.84-3.12C46.40-1.52 45.72-0.56 44.88-0.56C44.44-0.56 44.16-0.84 44.16-1.48L44.16-15.80L46.96-15.80C47.08-15.80 47.16-15.88 47.16-15.96L47.16-16.44C47.16-16.56 47.08-16.64 46.96-16.64L44.16-16.64L44.16-23.08C44.16-23.28 43.92-23.36 43.80-23.20C43.12-22.12 42.12-20.96 40.76-20.76C40.68-20.76 40.60-20.64 40.60-20.56L40.60-16.64L38.20-16.64C38.08-16.64 38-16.56 38-16.44L38-15.96C38-15.88 38.08-15.80 38.20-15.80L40.60-15.80L40.60-3.24C40.60-0.60 41.60 0.76 43.76 0.76C45.92 0.76 47.04-0.84 47.40-2.96C47.44-3.08 47.32-3.20 47.20-3.20ZM56.12 0.40C56.24 0.40 56.32 0.32 56.32 0.20L56.32-0.28C56.32-0.40 56.24-0.48 56.12-0.48L54.24-0.48L54.24-28.52C54.24-28.64 54.16-28.72 54.04-28.72L48.84-28.72C48.72-28.72 48.64-28.64 48.64-28.52L48.64-28.04C48.64-27.92 48.72-27.84 48.84-27.84L50.68-27.84L50.68-0.48L48.84-0.48C48.72-0.48 48.64-0.40 48.64-0.28L48.64 0.20C48.64 0.32 48.72 0.40 48.84 0.40ZM71.32-1.40C71.20-1.44 71.08-1.40 71.04-1.28C70.92-0.96 70.56-0.56 70.12-0.56C69.76-0.56 69.52-0.88 69.52-1.68L69.52-9.76C69.52-14.76 67.40-17.04 63.84-17.04C61.12-17.04 59.40-15.12 59.40-13.60C59.40-12.64 59.84-11.60 61-11.60C62.24-11.60 62.72-12.40 62.72-13.20C62.72-13.60 62.64-13.84 62.56-14.08C62.48-14.28 62.44-14.48 62.44-14.76C62.44-15.88 63.08-16.16 63.84-16.16C64.96-16.16 65.96-15.68 65.96-12.68L65.96-9.72C65.96-9.12 64.48-8.96 62.88-8.80C62.76-8.80 62.56-8.76 62.44-8.76C61.12-8.60 57.84-7.88 57.84-3.60C57.84-0.36 60.36 0.72 62.68 0.72C64.28 0.72 65.60-0.12 66.24-1.44C66.64-0.16 67.76 0.72 69.08 0.72C70.48 0.72 71.44-0.24 71.60-1.12C71.64-1.24 71.52-1.36 71.40-1.36ZM65.96-3.56C65.96-1.92 64.84-0.32 63.28-0.32C62.08-0.32 61.36-1.04 61.36-3.60C61.36-7.04 62.12-7.64 63.20-7.88C63.44-7.96 63.80-8 64.12-8.04C64.72-8.12 65.40-8.24 65.96-8.52ZM88.28-8C88.28-12.44 85.08-17 81.08-17C79.84-17 78.92-16.56 78.16-15.76L78.16-28.52C78.16-28.64 78.08-28.72 77.96-28.72L72.72-28.72C72.60-28.72 72.52-28.64 72.52-28.52L72.52-28.04C72.52-27.92 72.60-27.84 72.72-27.84L74.60-27.84L74.60-0.48L72.72-0.48C72.60-0.48 72.52-0.40 72.52-0.28L72.52 0.20C72.52 0.32 72.60 0.40 72.72 0.40L77.96 0.40C78.08 0.40 78.16 0.32 78.16 0.20L78.16-0.68C78.96 0.16 80.12 0.76 81.32 0.76C85.32 0.76 88.28-3.60 88.28-8ZM84.56-8C84.56-4.20 84.20-1.92 83.24-0.88C82.64-0.32 82.16-0.12 81.32-0.12C80.16-0.12 78.68-0.92 78.16-2.40L78.16-14.28C78.72-15.40 79.96-16.12 81.08-16.12C81.92-16.12 82.64-15.92 83.24-15.36C84.20-14.32 84.56-11.84 84.56-8Z"></path>
      </g> <!---->
      </g> <!----></g></g></g></svg>