<svg version="1.0" xmlns="http://www.w3.org/2000/svg" width="100%" height="100%"
     viewBox="0 0 200 120" preserveAspectRatio="xMidYMid meet" color-interpolation-filters="sRGB"
     class="el-tooltip" style="margin: auto;">
    <g fill="#ec7f22" transform="translate(20, 20)">
        <polyline stroke="#ec7f22" stroke-width="3" fill-opacity="0" points="91.59540557861328,20 91.59540557861328,0 0,0 0,81.76374816894531 91.59540557861328,81.76374816894531 91.59540557861328,61.76374816894531"></polyline>
        <g transform="translate(0,20)">
            <g transform="translate(10,3)">
                <g>
                    <g>
                        <path transform="translate(-1.9921875,29.981496710526)"
                              d="M10.86 5.78L10.86 5.78L10.86 5.78Q5.98 5.74 3.98 3.74L3.98 3.74L3.98 3.74Q1.99 1.74 1.99-1.05L1.99-1.05L1.99-1.05Q1.99-3.85 3.52-5.94L3.52-5.94L3.52-5.94Q4.24-6.91 5.49-7.87L5.49-7.87L5.49-7.87Q6.74-8.83 8.84-9.73L8.84-9.73L8.84-9.73Q10.94-10.63 11.88-10.86L11.88-10.86L17.38-12.15L17.38-12.15Q17.87-12.40 17.88-12.61L17.88-12.61L17.88-12.61Q17.89-12.81 17.51-13.19L17.51-13.19L17.51-13.19Q17.13-13.57 16.11-13.65L16.11-13.65L16.11-13.65Q14.22-13.75 12.37-12.98L12.37-12.98L12.37-12.98Q10.53-12.21 10.08-11.93L10.08-11.93L8.67-10.96L8.67-10.96Q7.77-10.43 6.70-10.37L6.70-10.37L6.70-10.37Q5.43-10.27 4.53-10.76L4.53-10.76L4.53-10.76Q3.63-11.25 3.06-12.08L3.06-12.08L3.06-12.08Q2.48-12.91 2.56-14.00L2.56-14.00L2.56-14.00Q2.62-15.23 3.70-16.46L3.70-16.46L3.70-16.46Q4.79-17.68 6.12-18.42L6.12-18.42L6.12-18.42Q7.46-19.16 9.07-19.57L9.07-19.57L9.07-19.57Q10.68-19.98 11.67-20.12L11.67-20.12L11.67-20.12Q12.66-20.25 14.00-20.31L14.00-20.31L14.00-20.31Q15.57-20.37 16.80-20.27L16.80-20.27L16.80-20.27Q18.03-20.18 19.19-19.91L19.19-19.91L19.19-19.91Q20.35-19.65 21.54-19.22L21.54-19.22L21.54-19.22Q22.73-18.79 23.74-17.87L23.74-17.87L23.74-17.87Q24.75-16.95 25.16-15.70L25.16-15.70L25.16-15.70Q25.57-14.45 25.67-12.66L25.67-12.66L25.67-12.66Q25.78-10.86 25.70-9.04L25.70-9.04L25.70-9.04Q25.63-7.23 25.64-7.03L25.64-7.03L25.70-5.37L25.80-1.60L25.80-1.60Q25.92-0.31 26.10 0.29L26.10 0.29L26.10 0.29Q26.29 0.90 26.56 1.74L26.56 1.74L26.56 1.74Q26.84 2.58 26.82 3.14L26.82 3.14L26.82 3.14Q26.78 3.95 26.33 4.48L26.33 4.48L26.33 4.48Q25.88 5.02 24.66 5.39L24.66 5.39L24.66 5.39Q23.44 5.76 22.38 5.66L22.38 5.66L22.38 5.66Q20.98 5.55 19.87 4.69L19.87 4.69L19.87 4.69Q18.77 3.83 18.42 3.89L18.42 3.89L18.42 3.89Q18.28 3.93 17.67 4.23L17.67 4.23L17.67 4.23Q17.05 4.53 16.00 4.84L16.00 4.84L16.00 4.84Q14.94 5.16 14.21 5.35L14.21 5.35L14.21 5.35Q13.48 5.55 12.24 5.67L12.24 5.67L12.24 5.67Q11.00 5.80 10.86 5.78ZM10.35-2.05L10.35-2.05L10.35-2.05Q10.35-1.41 10.86-0.87L10.86-0.87L10.86-0.87Q11.37-0.33 12.72-0.08L12.72-0.08L12.72-0.08Q14.08 0.18 16.99-1.48L16.99-1.48L16.99-1.48Q17.66-1.88 17.88-2.12L17.88-2.12L17.88-2.12Q18.11-2.36 18.24-2.64L18.24-2.64L18.24-2.64Q18.38-2.91 18.42-3.20L18.42-3.20L18.34-4.00L18.34-4.00Q18.18-5.70 18.00-5.84L18.00-5.84L18.00-5.84Q17.81-5.98 17.38-6.02L17.38-6.02L17.38-6.02Q17.09-6.02 16.62-5.93L16.62-5.93L16.62-5.93Q16.15-5.84 14.04-5.41L14.04-5.41L14.04-5.41Q11.93-4.98 11.13-3.85L11.13-3.85L11.13-3.85Q10.33-2.71 10.35-2.05ZM8.44-13.87L8.44-13.87L8.44-13.87Q8.54-13.85 8.78-14.10L8.78-14.10L8.78-14.10Q9.02-14.36 9.38-14.90L9.38-14.90L9.38-14.90Q9.75-15.45 10.04-15.76L10.04-15.76L10.04-15.76Q10.33-16.07 10.63-16.17L10.63-16.17L10.63-16.17Q10.92-16.27 11.43-16.02L11.43-16.02L11.43-16.02Q11.60-15.90 12.06-15.52L12.06-15.52L12.06-15.52Q12.52-15.14 12.79-15.20L12.79-15.20L12.79-15.20Q13.05-15.23 13.33-15.74L13.33-15.74L13.33-15.74Q13.61-16.25 13.82-16.42L13.82-16.42L13.82-16.42Q14.02-16.58 14.43-16.58L14.43-16.58L14.43-16.58Q14.79-16.56 15.01-16.41L15.01-16.41L15.01-16.41Q15.23-16.25 15.57-15.99L15.57-15.99L15.57-15.99Q15.90-15.72 16.15-15.72L16.15-15.72L16.15-15.72Q16.37-15.70 16.64-15.88L16.64-15.88L17.48-16.54L17.48-16.54Q17.91-16.84 18.26-16.78L18.26-16.78L18.26-16.78Q18.69-16.68 19.07-15.80L19.07-15.80L19.07-15.80Q19.45-14.92 19.76-14.43L19.76-14.43L19.76-14.43Q20.06-13.95 20.37-14.00L20.37-14.00L20.37-14.00Q20.57-14.02 20.75-14.28L20.75-14.28L20.75-14.28Q20.94-14.53 21.22-15L21.22-15L21.22-15Q21.50-15.47 21.76-15.52L21.76-15.52L21.76-15.52Q22.01-15.57 22.34-15.33L22.34-15.33L22.34-15.33Q22.52-15.18 22.77-14.81L22.77-14.81L22.77-14.81Q23.03-14.45 23.41-13.80L23.41-13.80L23.41-13.80Q23.79-13.14 24.08-13.21L24.08-13.21L24.08-13.21Q24.38-13.28 24.50-13.76L24.50-13.76L24.50-13.76Q24.63-14.24 24.32-15.12L24.32-15.12L24.32-15.12Q23.95-16.09 23.77-16.41L23.77-16.41L23.77-16.41Q23.59-16.72 22.97-17.25L22.97-17.25L22.97-17.25Q22.34-17.77 21.66-18.11L21.66-18.11L21.66-18.11Q20.98-18.44 19.99-18.74L19.99-18.74L19.99-18.74Q19.00-19.04 18.00-19.20L18.00-19.20L18.00-19.20Q16.99-19.36 15.77-19.40L15.77-19.40L15.77-19.40Q14.55-19.45 13.55-19.41L13.55-19.41L13.55-19.41Q12.36-19.34 11.00-19.11L11.00-19.11L11.00-19.11Q9.63-18.89 8.77-18.59L8.77-18.59L8.77-18.59Q7.91-18.30 6.97-17.84L6.97-17.84L6.97-17.84Q6.04-17.38 5.51-16.94L5.51-16.94L5.51-16.94Q4.98-16.50 4.51-15.94L4.51-15.94L4.51-15.94Q4.04-15.37 3.81-14.88L3.81-14.88L3.81-14.88Q3.57-14.39 3.54-13.88L3.54-13.88L3.54-13.88Q3.52-13.36 3.96-12.68L3.96-12.68L3.96-12.68Q4.39-11.99 4.80-12.15L4.80-12.15L4.80-12.15Q5-12.21 5.17-12.54L5.17-12.54L5.17-12.54Q5.33-12.87 5.50-13.55L5.50-13.55L5.50-13.55Q5.66-14.24 6.06-14.75L6.06-14.75L6.06-14.75Q6.46-15.25 6.97-15.14L6.97-15.14L6.97-15.14Q7.15-15.08 7.72-14.47L7.72-14.47L7.72-14.47Q8.30-13.87 8.44-13.87ZM32.56-26.15L32.56-26.15L32.56-26.15Q32.54-27.66 32.87-28.48L32.87-28.48L32.87-28.48Q33.20-29.30 34.08-29.65L34.08-29.65L34.08-29.65Q34.96-30 36.46-29.98L36.46-29.98L36.46-29.98Q37.87-29.94 38.58-29.73L38.58-29.73L38.58-29.73Q39.30-29.51 39.63-29.13L39.63-29.13L39.63-29.13Q39.96-28.75 40.19-28.23L40.19-28.23L40.19-28.23Q40.41-27.71 40.35-25.72L40.35-25.72L40.35-25.72Q40.29-24.24 40.13-23.58L40.13-23.58L40.13-23.58Q39.96-22.93 39.59-22.59L39.59-22.59L39.59-22.59Q39.22-22.25 38.64-21.98L38.64-21.98L38.64-21.98Q38.07-21.72 36.19-21.76L36.19-21.76L36.19-21.76Q35.16-21.76 34.49-21.89L34.49-21.89L34.49-21.89Q33.83-22.03 33.37-22.47L33.37-22.47L33.37-22.47Q32.91-22.91 32.74-23.68L32.74-23.68L32.74-23.68Q32.58-24.45 32.56-26.15ZM37.27-29.30L37.27-29.30L37.27-29.30Q36.62-29.34 35.74-29.28L35.74-29.28L35.74-29.28Q34.86-29.22 34.28-28.89L34.28-28.89L34.28-28.89Q33.69-28.55 33.45-28.03L33.45-28.03L33.45-28.03Q33.20-27.50 33.21-26.80L33.21-26.80L33.21-26.80Q33.22-26.09 33.18-25.40L33.18-25.40L33.18-25.40Q33.14-24.71 33.21-24.48L33.21-24.48L33.21-24.48Q33.28-24.26 33.39-24.20L33.39-24.20L33.39-24.20Q33.50-24.14 33.73-24.32L33.73-24.32L33.73-24.32Q33.85-24.39 33.95-24.56L33.95-24.56L33.95-24.56Q34.04-24.73 34.28-25.12L34.28-25.12L34.28-25.12Q34.51-25.51 34.70-25.55L34.70-25.55L34.70-25.55Q34.88-25.59 35.21-25.12L35.21-25.12L35.21-25.12Q35.35-24.88 35.56-24.34L35.56-24.34L35.56-24.34Q35.76-23.79 35.86-23.54L35.86-23.54L35.86-23.54Q35.96-23.30 36.11-23.28L36.11-23.28L36.11-23.28Q36.27-23.26 36.50-23.75L36.50-23.75L36.50-23.75Q36.56-23.87 36.76-24.51L36.76-24.51L36.76-24.51Q36.95-25.16 36.99-25.46L36.99-25.46L36.99-25.46Q37.03-25.76 37.17-25.93L37.17-25.93L37.17-25.93Q37.30-26.09 37.50-26.09L37.50-26.09L37.50-26.09Q37.68-26.07 37.79-25.42L37.79-25.42L37.79-25.42Q37.91-24.77 38.01-24.77L38.01-24.77L38.01-24.77Q38.11-24.75 38.42-25.39L38.42-25.39L38.42-25.39Q38.73-26.04 38.81-26.00L38.81-26.00L38.81-26.00Q38.85-25.96 38.91-25.35L38.91-25.35L38.96-24.77L38.96-24.77Q38.96-24.36 39.05-24.16L39.05-24.16L39.05-24.16Q39.14-23.96 39.29-23.96L39.29-23.96L39.29-23.96Q39.43-23.95 39.57-24.22L39.57-24.22L39.57-24.22Q39.65-24.41 39.63-24.74L39.63-24.74L39.63-24.74Q39.61-25.06 39.62-25.76L39.62-25.76L39.62-25.76Q39.63-26.46 39.63-26.74L39.63-26.74L39.63-26.74Q39.61-27.79 39.34-28.27L39.34-28.27L39.34-28.27Q39.06-28.75 38.51-28.99L38.51-28.99L38.51-28.99Q37.95-29.24 37.27-29.30ZM32.71 0.92L32.71 0.92L32.71-15.92L32.71-15.92Q32.71-17.70 32.89-18.21L32.89-18.21L32.89-18.21Q33.07-18.73 33.49-19.21L33.49-19.21L33.49-19.21Q33.91-19.69 34.62-19.97L34.62-19.97L34.62-19.97Q35.33-20.25 36.54-20.27L36.54-20.27L36.54-20.27Q37.60-20.27 38.25-20.06L38.25-20.06L38.25-20.06Q38.91-19.84 39.46-19.31L39.46-19.31L39.46-19.31Q40.02-18.77 40.30-18.09L40.30-18.09L40.30-18.09Q40.59-17.40 40.59-16.37L40.59-16.37L40.59 1.93L40.59 1.93Q40.59 2.62 40.31 3.45L40.31 3.45L40.31 3.45Q40.04 4.28 39.70 4.60L39.70 4.60L39.70 4.60Q39.36 4.92 38.43 5.16L38.43 5.16L38.43 5.16Q37.50 5.39 36.70 5.39L36.70 5.39L36.70 5.39Q36.19 5.41 35.21 5.25L35.21 5.25L35.21 5.25Q34.22 5.10 33.69 4.52L33.69 4.52L33.69 4.52Q33.16 3.95 32.94 3.13L32.94 3.13L32.94 3.13Q32.71 2.32 32.71 0.92ZM46.68 1.23L46.68 1.23L46.72-16.48L46.72-16.48Q46.72-17.64 46.85-18.33L46.85-18.33L46.85-18.33Q46.97-19.02 47.33-19.49L47.33-19.49L47.33-19.49Q47.70-19.96 48.58-20.20L48.58-20.20L48.58-20.20Q49.47-20.43 50.21-20.47L50.21-20.47L50.21-20.47Q50.94-20.49 51.94-20.36L51.94-20.36L51.94-20.36Q52.95-20.23 53.50-19.89L53.50-19.89L53.50-19.89Q54.04-19.55 54.24-18.95L54.24-18.95L54.43-18.28L54.43-18.28Q54.61-17.93 54.86-17.89L54.86-17.89L54.86-17.89Q55.12-17.85 55.63-18.28L55.63-18.28L55.63-18.28Q56.07-18.65 56.98-19.20L56.98-19.20L56.98-19.20Q57.89-19.75 58.44-19.99L58.44-19.99L58.44-19.99Q58.98-20.23 60.20-20.54L60.20-20.54L60.20-20.54Q61.41-20.84 62.13-20.94L62.13-20.94L62.13-20.94Q63.07-21.04 64.06-20.90L64.06-20.90L64.06-20.90Q65.06-20.76 65.63-20.27L65.63-20.27L65.63-20.27Q66.19-19.79 66.37-18.78L66.37-18.78L66.37-18.78Q66.54-17.77 66.48-16.78L66.48-16.78L66.48-16.78Q66.33-14.94 65.68-14.29L65.68-14.29L65.68-14.29Q65.04-13.63 64.00-13.40L64.00-13.40L61.23-13.13L61.23-13.13Q59.80-12.95 58.60-12.32L58.60-12.32L58.60-12.32Q57.40-11.70 56.52-10.74L56.52-10.74L56.52-10.74Q55.64-9.79 55.26-8.76L55.26-8.76L55.26-8.76Q54.88-7.73 54.88-6.15L54.88-6.15L54.88 0.47L54.88 0.47Q54.88 2.09 54.84 2.78L54.84 2.78L54.84 2.78Q54.80 3.48 54.29 4.09L54.29 4.09L54.29 4.09Q53.77 4.71 53.00 4.94L53.00 4.94L53.00 4.94Q52.23 5.18 50.88 5.20L50.88 5.20L50.88 5.20Q49.67 5.23 48.94 5.04L48.94 5.04L48.94 5.04Q48.20 4.84 47.69 4.29L47.69 4.29L47.69 4.29Q47.17 3.73 46.92 2.84L46.92 2.84L46.92 2.84Q46.68 1.95 46.68 1.23ZM53.96-16.78L53.96-16.78L53.96-16.78Q53.93-16.80 53.70-17.57L53.70-17.57L53.70-17.57Q53.48-18.34 53.30-18.68L53.30-18.68L53.30-18.68Q53.13-19.02 52.72-19.26L52.72-19.26L52.72-19.26Q52.32-19.49 51.60-19.55L51.60-19.55L51.60-19.55Q50.88-19.59 50.07-19.53L50.07-19.53L50.07-19.53Q49.26-19.47 48.83-19.33L48.83-19.33L48.83-19.33Q48.40-19.18 48.05-18.83L48.05-18.83L48.05-18.83Q47.70-18.48 47.60-17.88L47.60-17.88L47.60-17.88Q47.50-17.29 47.50-16.46L47.50-16.46L47.50-16.46Q47.48-15.43 47.51-14.53L47.51-14.53L47.51-14.53Q47.54-13.63 47.47-12.95L47.47-12.95L47.47-12.95Q47.40-12.27 47.59-12.25L47.59-12.25L47.59-12.25Q47.77-12.23 47.97-12.38L47.97-12.38L47.97-12.38Q48.16-12.54 48.28-13.10L48.28-13.10L48.28-13.10Q48.40-13.65 48.52-13.92L48.52-13.92L48.52-13.92Q48.63-14.18 48.89-14.22L48.89-14.22L48.89-14.22Q49.14-14.26 49.43-13.46L49.43-13.46L49.43-13.46Q49.55-13.09 49.71-12.38L49.71-12.38L50-11.05L50-11.05Q50.18-10.20 50.31-10.21L50.31-10.21L50.31-10.21Q50.47-10.21 50.60-10.66L50.60-10.66L50.60-10.66Q50.72-11.11 50.92-12.21L50.92-12.21L50.92-12.21Q51.11-13.30 51.12-13.75L51.12-13.75L51.12-13.75Q51.13-14.20 51.28-14.46L51.28-14.46L51.28-14.46Q51.43-14.73 51.59-14.74L51.59-14.74L51.59-14.74Q51.76-14.75 51.88-14.09L51.88-14.09L51.88-14.09Q51.99-13.44 52.10-13.43L52.10-13.43L52.10-13.43Q52.21-13.42 52.44-13.98L52.44-13.98L52.44-13.98Q52.68-14.55 52.94-14.71L52.94-14.71L52.94-14.71Q53.20-14.86 53.77-14.53L53.77-14.53L53.77-14.53Q54.04-14.36 54.31-13.91L54.31-13.91L54.31-13.91Q54.57-13.46 54.71-13.27L54.71-13.27L54.71-13.27Q54.84-13.09 55.05-13.07L55.05-13.07L55.05-13.07Q55.25-13.05 55.55-13.61L55.55-13.61L55.55-13.61Q55.74-14.00 55.96-15.14L55.96-15.14L55.96-15.14Q56.17-16.27 56.54-16.25L56.54-16.25L56.54-16.25Q56.86-16.23 57.32-15.45L57.32-15.45L57.75-14.67L57.75-14.67Q57.93-14.39 58.09-14.38L58.09-14.38L58.09-14.38Q58.24-14.36 58.46-14.67L58.46-14.67L58.46-14.67Q58.63-14.92 58.71-15.43L58.71-15.43L58.71-15.43Q58.79-15.94 58.96-16.22L58.96-16.22L58.96-16.22Q59.12-16.50 59.45-16.50L59.45-16.50L60.23-16.25L60.23-16.25Q60.47-16.29 60.63-16.64L60.63-16.64L60.82-17.44L60.82-17.44Q61.00-17.81 61.25-17.82L61.25-17.82L61.25-17.82Q61.50-17.83 61.76-17.56L61.76-17.56L62.21-16.84L62.21-16.84Q62.52-16.39 62.73-16.45L62.73-16.45L62.73-16.45Q62.89-16.46 63.04-16.94L63.04-16.94L63.04-16.94Q63.18-17.42 63.38-17.72L63.38-17.72L63.38-17.72Q63.57-18.03 63.79-18.03L63.79-18.03L63.79-18.03Q63.98-18.01 64.11-17.69L64.11-17.69L64.11-17.69Q64.24-17.36 64.32-17.11L64.32-17.11L64.51-16.25L64.51-16.25Q64.65-15.68 64.88-15.62L64.88-15.62L64.88-15.62Q65.12-15.55 65.39-15.96L65.39-15.96L65.39-15.96Q65.66-16.37 65.64-17.17L65.64-17.17L65.64-17.17Q65.61-18.16 65.54-18.60L65.54-18.60L65.54-18.60Q65.47-19.04 65.15-19.42L65.15-19.42L65.15-19.42Q64.82-19.80 63.96-20.02L63.96-20.02L63.96-20.02Q63.09-20.23 61.88-20.08L61.88-20.08L61.88-20.08Q60.84-19.92 59.80-19.55L59.80-19.55L59.80-19.55Q58.77-19.18 57.95-18.75L57.95-18.75L57.95-18.75Q57.13-18.32 56.36-17.73L56.36-17.73L56.36-17.73Q55.59-17.15 54.91-16.87L54.91-16.87L54.91-16.87Q54.24-16.58 53.96-16.78ZM83.52-12.25L83.52-12.25L83.50-3.71L83.50-3.71Q83.48-3.14 83.63-2.81L83.63-2.81L83.63-2.81Q83.79-2.48 84.22-2.26L84.22-2.26L84.22-2.26Q84.65-2.03 85.04-2.03L85.04-2.03L86.84-1.99L86.84-1.99Q87.85-1.95 88.47-1.61L88.47-1.61L88.47-1.61Q89.08-1.27 89.39-0.71L89.39-0.71L89.39-0.71Q89.71-0.16 89.83 1.28L89.83 1.28L89.83 1.28Q89.96 2.71 89.49 3.85L89.49 3.85L89.49 3.85Q89.22 4.49 88.78 4.87L88.78 4.87L88.78 4.87Q88.34 5.25 87.28 5.47L87.28 5.47L87.28 5.47Q86.21 5.68 84.53 5.68L84.53 5.68L81.48 5.68L81.48 5.68Q79.96 5.68 79.00 5.30L79.00 5.30L79.00 5.30Q78.05 4.92 77.32 4.30L77.32 4.30L77.32 4.30Q76.60 3.67 76.28 2.96L76.28 2.96L76.28 2.96Q75.96 2.25 75.88 1.46L75.88 1.46L75.88 1.46Q75.80 0.68 75.80-1.33L75.80-1.33L75.80-11.82L75.80-11.82Q75.80-12.44 75.40-12.78L75.40-12.78L75.40-12.78Q75-13.13 74.51-13.13L74.51-13.13L72.66-13.13L72.66-13.13Q71.97-13.13 71.49-13.43L71.49-13.43L71.49-13.43Q71.02-13.73 70.81-14.42L70.81-14.42L70.81-14.42Q70.61-15.12 70.59-16.18L70.59-16.18L70.59-16.18Q70.57-17.25 70.70-17.89L70.70-17.89L70.70-17.89Q70.92-18.79 71.49-19.30L71.49-19.30L71.49-19.30Q72.07-19.80 73.03-19.88L73.03-19.88L74.34-19.84L74.34-19.84Q75.14-19.82 75.45-20.16L75.45-20.16L75.45-20.16Q75.64-20.35 75.69-20.63L75.69-20.63L75.69-20.63Q75.74-20.90 75.74-22.01L75.74-22.01L75.74-24.28L75.74-24.28Q75.74-25.61 76.24-26.25L76.24-26.25L76.24-26.25Q76.74-26.89 77.68-27.13L77.68-27.13L77.68-27.13Q78.61-27.36 79.67-27.38L79.67-27.38L79.67-27.38Q80.92-27.38 81.78-27.07L81.78-27.07L81.78-27.07Q82.64-26.76 83.08-26.05L83.08-26.05L83.08-26.05Q83.52-25.35 83.52-24.30L83.52-24.30L83.52-21.39L83.52-21.39Q83.52-20.63 83.57-20.35L83.57-20.35L83.57-20.35Q83.63-20.08 83.90-19.86L83.90-19.86L83.90-19.86Q84.16-19.65 85.10-19.65L85.10-19.65L87.07-19.65L87.07-19.65Q88.18-19.65 88.67-19.56L88.67-19.56L88.67-19.56Q89.16-19.47 89.55-19.08L89.55-19.08L89.55-19.08Q89.94-18.69 90.12-17.71L90.12-17.71L90.12-17.71Q90.29-16.72 90.27-15.88L90.27-15.88L90.27-15.88Q90.20-14.22 89.65-13.79L89.65-13.79L89.65-13.79Q89.10-13.36 88.60-13.25L88.60-13.25L88.60-13.25Q88.11-13.14 86.86-13.14L86.86-13.14L84.57-13.13L84.57-13.13Q84.02-13.11 83.77-12.88L83.77-12.88L83.77-12.88Q83.52-12.66 83.52-12.25ZM87.05-18.89L83.83-18.95L83.83-18.95Q83.44-18.95 83.20-19.07L83.20-19.07L83.20-19.07Q82.97-19.20 82.85-19.94L82.85-19.94L82.85-19.94Q82.73-20.49 82.76-21.64L82.76-21.64L82.76-21.64Q82.79-22.79 82.77-23.83L82.77-23.83L82.77-23.83Q82.75-24.55 82.57-25.12L82.57-25.12L82.57-25.12Q82.38-25.68 81.81-26.04L81.81-26.04L81.81-26.04Q81.23-26.41 80.33-26.50L80.33-26.50L80.33-26.50Q79.41-26.58 78.80-26.47L78.80-26.47L78.80-26.47Q78.18-26.37 77.67-26.15L77.67-26.15L77.67-26.15Q77.15-25.94 76.89-25.60L76.89-25.60L76.89-25.60Q76.64-25.25 76.58-24.55L76.58-24.55L76.58-24.55Q76.52-24.16 76.55-23.13L76.55-23.13L76.55-23.13Q76.58-22.11 76.58-21.25L76.58-21.25L76.58-21.25Q76.56-20.53 76.47-20.08L76.47-20.08L76.47-20.08Q76.39-19.63 76.07-19.33L76.07-19.33L76.07-19.33Q75.76-19.02 75.25-19.04L75.25-19.04L73.36-19.06L73.36-19.06Q72.73-19.06 72.33-18.87L72.33-18.87L72.33-18.87Q71.93-18.67 71.69-18.28L71.69-18.28L71.69-18.28Q71.45-17.89 71.40-17.47L71.40-17.47L71.40-17.47Q71.35-17.05 71.29-16.53L71.29-16.53L71.29-16.53Q71.23-16.02 71.44-15.52L71.44-15.52L71.44-15.52Q71.64-15.02 72.05-15.08L72.05-15.08L72.05-15.08Q72.32-15.10 72.62-15.74L72.62-15.74L72.89-16.41L72.89-16.41Q73.11-16.89 73.27-16.90L73.27-16.90L73.27-16.90Q73.44-16.91 73.67-16.35L73.67-16.35L74.06-15.16L74.06-15.16Q74.34-14.47 74.61-14.49L74.61-14.49L74.61-14.49Q74.92-14.49 75.12-15.02L75.12-15.02L75.33-15.92L75.33-15.92Q75.63-16.41 75.78-16.35L75.78-16.35L75.78-16.35Q75.94-16.29 76.19-15.65L76.19-15.65L76.19-15.65Q76.45-15.02 76.97-15.10L76.97-15.10L76.97-15.10Q77.23-15.12 77.61-15.72L77.61-15.72L77.61-15.72Q77.99-16.33 78.10-16.34L78.10-16.34L78.10-16.34Q78.20-16.35 78.48-15.49L78.48-15.49L78.48-15.49Q79.02-13.69 79.37-13.08L79.37-13.08L79.37-13.08Q79.71-12.46 79.94-12.52L79.94-12.52L79.94-12.52Q80.08-12.54 80.35-13.24L80.35-13.24L80.86-14.55L81.21-16.07L81.21-16.07Q81.41-16.88 81.64-16.88L81.64-16.88L81.64-16.88Q81.82-16.86 82.02-16.58L82.02-16.58L82.02-16.58Q82.23-16.31 82.56-15.60L82.56-15.60L82.56-15.60Q82.89-14.88 83.17-14.81L83.17-14.81L83.17-14.81Q83.46-14.75 84.08-15.55L84.08-15.55L84.08-15.55Q84.51-16.11 84.82-16.58L84.82-16.58L84.82-16.58Q85.14-17.05 85.36-17.06L85.36-17.06L85.36-17.06Q85.59-17.07 85.86-16.78L85.86-16.78L85.86-16.78Q86.07-16.48 86.15-15.75L86.15-15.75L86.15-15.75Q86.23-15.02 86.39-14.82L86.39-14.82L86.39-14.82Q86.54-14.63 86.72-14.60L86.72-14.60L86.72-14.60Q86.89-14.57 87.19-15.20L87.19-15.20L87.19-15.20Q87.36-15.59 87.54-16.11L87.54-16.11L87.54-16.11Q87.71-16.64 87.94-16.70L87.94-16.70L87.94-16.70Q88.16-16.76 88.50-16.35L88.50-16.35L88.98-15.51L88.98-15.51Q89.16-15.27 89.31-15.28L89.31-15.28L89.31-15.28Q89.45-15.29 89.47-15.70L89.47-15.70L89.47-15.70Q89.49-16.11 89.49-16.45L89.49-16.45L89.49-16.45Q89.47-17.05 89.41-17.46L89.41-17.46L89.41-17.46Q89.36-17.87 89.11-18.21L89.11-18.21L89.11-18.21Q88.87-18.55 88.39-18.71L88.39-18.71L88.39-18.71Q87.91-18.87 87.05-18.89L87.05-18.89ZM95.74 1.07L95.74 1.07L95.74-25.33L95.74-25.33Q95.74-26.84 95.82-27.45L95.82-27.45L95.82-27.45Q95.90-28.07 96.39-28.64L96.39-28.64L96.39-28.64Q96.88-29.22 97.74-29.48L97.74-29.48L97.74-29.48Q98.61-29.75 99.61-29.77L99.61-29.77L99.61-29.77Q100.35-29.77 101.19-29.66L101.19-29.66L101.19-29.66Q102.03-29.55 102.71-29.19L102.71-29.19L102.71-29.19Q103.38-28.83 103.68-28.26L103.68-28.26L103.68-28.26Q103.98-27.70 103.97-26.94L103.97-26.94L103.97-26.94Q103.96-26.19 103.96-24.02L103.96-24.02L103.96 1.19L103.96 1.19Q103.96 2.68 103.74 3.48L103.74 3.48L103.74 3.48Q103.52 4.28 102.54 4.92L102.54 4.92L102.54 4.92Q101.56 5.57 99.88 5.55L99.88 5.55L99.88 5.55Q98.26 5.55 97.38 4.97L97.38 4.97L97.38 4.97Q96.50 4.39 96.12 3.49L96.12 3.49L96.12 3.49Q95.74 2.58 95.74 1.07ZM96.39-25.70L96.39-25.70L96.39-24.30L96.39-24.30Q96.25-23.05 96.38-22.63L96.38-22.63L96.38-22.63Q96.50-22.21 96.63-22.20L96.63-22.20L96.63-22.20Q96.76-22.19 96.93-22.64L96.93-22.64L96.93-22.64Q97.03-22.91 97.14-23.33L97.14-23.33L97.14-23.33Q97.25-23.75 97.32-23.99L97.32-23.99L97.32-23.99Q97.40-24.24 97.50-24.26L97.50-24.26L97.50-24.26Q97.56-24.26 97.79-23.85L97.79-23.85L97.79-23.85Q98.03-23.44 98.18-23.48L98.18-23.48L98.18-23.48Q98.32-23.50 98.40-24.17L98.40-24.17L98.40-24.17Q98.48-24.84 98.65-24.87L98.65-24.87L98.65-24.87Q98.83-24.90 99.08-24.69L99.08-24.69L99.08-24.69Q99.30-24.47 99.36-23.57L99.36-23.57L99.55-22.30L99.55-22.30Q99.67-21.23 99.79-20.81L99.79-20.81L99.79-20.81Q99.92-20.39 100.12-20.41L100.12-20.41L100.12-20.41Q100.23-20.41 100.47-21.19L100.47-21.19L100.80-22.30L100.80-22.30Q101.05-23.36 101.26-23.79L101.26-23.79L101.26-23.79Q101.46-24.22 101.72-24.20L101.72-24.20L101.72-24.20Q101.89-24.16 102.09-23.85L102.09-23.85L102.38-23.03L102.38-23.03Q102.71-22.21 102.93-22.29L102.93-22.29L102.93-22.29Q103.14-22.38 103.22-22.85L103.22-22.85L103.22-22.85Q103.30-23.32 103.30-23.96L103.30-23.96L103.30-23.96Q103.28-25.98 103.26-26.67L103.26-26.67L103.26-26.67Q103.24-27.36 102.88-27.93L102.88-27.93L102.88-27.93Q102.52-28.50 101.94-28.70L101.94-28.70L101.94-28.70Q101.37-28.91 100.65-28.96L100.65-28.96L100.65-28.96Q99.94-29.00 99.22-28.96L99.22-28.96L99.22-28.96Q98.22-28.91 97.71-28.63L97.71-28.63L97.71-28.63Q97.21-28.36 96.95-27.97L96.95-27.97L96.95-27.97Q96.70-27.58 96.54-26.96L96.54-26.96L96.54-26.96Q96.39-26.35 96.39-25.70ZM118.65 5.78L118.65 5.78L118.65 5.78Q113.77 5.74 111.78 3.74L111.78 3.74L111.78 3.74Q109.79 1.74 109.79-1.05L109.79-1.05L109.79-1.05Q109.79-3.85 111.31-5.94L111.31-5.94L111.31-5.94Q112.03-6.91 113.28-7.87L113.28-7.87L113.28-7.87Q114.53-8.83 116.63-9.73L116.63-9.73L116.63-9.73Q118.73-10.63 119.67-10.86L119.67-10.86L125.18-12.15L125.18-12.15Q125.66-12.40 125.67-12.61L125.67-12.61L125.67-12.61Q125.68-12.81 125.30-13.19L125.30-13.19L125.30-13.19Q124.92-13.57 123.91-13.65L123.91-13.65L123.91-13.65Q122.01-13.75 120.17-12.98L120.17-12.98L120.17-12.98Q118.32-12.21 117.87-11.93L117.87-11.93L116.46-10.96L116.46-10.96Q115.57-10.43 114.49-10.37L114.49-10.37L114.49-10.37Q113.22-10.27 112.32-10.76L112.32-10.76L112.32-10.76Q111.43-11.25 110.85-12.08L110.85-12.08L110.85-12.08Q110.27-12.91 110.35-14.00L110.35-14.00L110.35-14.00Q110.41-15.23 111.49-16.46L111.49-16.46L111.49-16.46Q112.58-17.68 113.92-18.42L113.92-18.42L113.92-18.42Q115.25-19.16 116.87-19.57L116.87-19.57L116.87-19.57Q118.48-19.98 119.46-20.12L119.46-20.12L119.46-20.12Q120.45-20.25 121.80-20.31L121.80-20.31L121.80-20.31Q123.36-20.37 124.59-20.27L124.59-20.27L124.59-20.27Q125.82-20.18 126.98-19.91L126.98-19.91L126.98-19.91Q128.14-19.65 129.34-19.22L129.34-19.22L129.34-19.22Q130.53-18.79 131.53-17.87L131.53-17.87L131.53-17.87Q132.54-16.95 132.95-15.70L132.95-15.70L132.95-15.70Q133.36-14.45 133.47-12.66L133.47-12.66L133.47-12.66Q133.57-10.86 133.50-9.04L133.50-9.04L133.50-9.04Q133.42-7.23 133.44-7.03L133.44-7.03L133.50-5.37L133.59-1.60L133.59-1.60Q133.71-0.31 133.90 0.29L133.90 0.29L133.90 0.29Q134.08 0.90 134.36 1.74L134.36 1.74L134.36 1.74Q134.63 2.58 134.61 3.14L134.61 3.14L134.61 3.14Q134.57 3.95 134.12 4.48L134.12 4.48L134.12 4.48Q133.67 5.02 132.45 5.39L132.45 5.39L132.45 5.39Q131.23 5.76 130.18 5.66L130.18 5.66L130.18 5.66Q128.77 5.55 127.67 4.69L127.67 4.69L127.67 4.69Q126.56 3.83 126.21 3.89L126.21 3.89L126.21 3.89Q126.07 3.93 125.46 4.23L125.46 4.23L125.46 4.23Q124.84 4.53 123.79 4.84L123.79 4.84L123.79 4.84Q122.73 5.16 122.00 5.35L122.00 5.35L122.00 5.35Q121.27 5.55 120.03 5.67L120.03 5.67L120.03 5.67Q118.79 5.80 118.65 5.78ZM118.14-2.05L118.14-2.05L118.14-2.05Q118.14-1.41 118.65-0.87L118.65-0.87L118.65-0.87Q119.16-0.33 120.52-0.08L120.52-0.08L120.52-0.08Q121.88 0.18 124.79-1.48L124.79-1.48L124.79-1.48Q125.45-1.88 125.67-2.12L125.67-2.12L125.67-2.12Q125.90-2.36 126.04-2.64L126.04-2.64L126.04-2.64Q126.17-2.91 126.21-3.20L126.21-3.20L126.13-4.00L126.13-4.00Q125.98-5.70 125.79-5.84L125.79-5.84L125.79-5.84Q125.61-5.98 125.18-6.02L125.18-6.02L125.18-6.02Q124.88-6.02 124.41-5.93L124.41-5.93L124.41-5.93Q123.95-5.84 121.84-5.41L121.84-5.41L121.84-5.41Q119.73-4.98 118.93-3.85L118.93-3.85L118.93-3.85Q118.13-2.71 118.14-2.05ZM116.23-13.87L116.23-13.87L116.23-13.87Q116.33-13.85 116.57-14.10L116.57-14.10L116.57-14.10Q116.82-14.36 117.18-14.90L117.18-14.90L117.18-14.90Q117.54-15.45 117.83-15.76L117.83-15.76L117.83-15.76Q118.13-16.07 118.42-16.17L118.42-16.17L118.42-16.17Q118.71-16.27 119.22-16.02L119.22-16.02L119.22-16.02Q119.39-15.90 119.85-15.52L119.85-15.52L119.85-15.52Q120.31-15.14 120.59-15.20L120.59-15.20L120.59-15.20Q120.84-15.23 121.12-15.74L121.12-15.74L121.12-15.74Q121.41-16.25 121.61-16.42L121.61-16.42L121.61-16.42Q121.82-16.58 122.23-16.58L122.23-16.58L122.23-16.58Q122.58-16.56 122.80-16.41L122.80-16.41L122.80-16.41Q123.03-16.25 123.36-15.99L123.36-15.99L123.36-15.99Q123.69-15.72 123.95-15.72L123.95-15.72L123.95-15.72Q124.16-15.70 124.43-15.88L124.43-15.88L125.27-16.54L125.27-16.54Q125.70-16.84 126.05-16.78L126.05-16.78L126.05-16.78Q126.48-16.68 126.87-15.80L126.87-15.80L126.87-15.80Q127.25-14.92 127.55-14.43L127.55-14.43L127.55-14.43Q127.85-13.95 128.16-14.00L128.16-14.00L128.16-14.00Q128.36-14.02 128.54-14.28L128.54-14.28L128.54-14.28Q128.73-14.53 129.01-15L129.01-15L129.01-15Q129.30-15.47 129.55-15.52L129.55-15.52L129.55-15.52Q129.80-15.57 130.14-15.33L130.14-15.33L130.14-15.33Q130.31-15.18 130.57-14.81L130.57-14.81L130.57-14.81Q130.82-14.45 131.20-13.80L131.20-13.80L131.20-13.80Q131.58-13.14 131.88-13.21L131.88-13.21L131.88-13.21Q132.17-13.28 132.29-13.76L132.29-13.76L132.29-13.76Q132.42-14.24 132.11-15.12L132.11-15.12L132.11-15.12Q131.74-16.09 131.56-16.41L131.56-16.41L131.56-16.41Q131.39-16.72 130.76-17.25L130.76-17.25L130.76-17.25Q130.14-17.77 129.45-18.11L129.45-18.11L129.45-18.11Q128.77-18.44 127.78-18.74L127.78-18.74L127.78-18.74Q126.80-19.04 125.79-19.20L125.79-19.20L125.79-19.20Q124.79-19.36 123.56-19.40L123.56-19.40L123.56-19.40Q122.34-19.45 121.35-19.41L121.35-19.41L121.35-19.41Q120.16-19.34 118.79-19.11L118.79-19.11L118.79-19.11Q117.42-18.89 116.56-18.59L116.56-18.59L116.56-18.59Q115.70-18.30 114.77-17.84L114.77-17.84L114.77-17.84Q113.83-17.38 113.30-16.94L113.30-16.94L113.30-16.94Q112.77-16.50 112.30-15.94L112.30-15.94L112.30-15.94Q111.84-15.37 111.60-14.88L111.60-14.88L111.60-14.88Q111.37-14.39 111.34-13.88L111.34-13.88L111.34-13.88Q111.31-13.36 111.75-12.68L111.75-12.68L111.75-12.68Q112.19-11.99 112.60-12.15L112.60-12.15L112.60-12.15Q112.79-12.21 112.96-12.54L112.96-12.54L112.96-12.54Q113.13-12.87 113.29-13.55L113.29-13.55L113.29-13.55Q113.46-14.24 113.86-14.75L113.86-14.75L113.86-14.75Q114.26-15.25 114.77-15.14L114.77-15.14L114.77-15.14Q114.94-15.08 115.52-14.47L115.52-14.47L115.52-14.47Q116.09-13.87 116.23-13.87ZM139.00 1.86L139.00 1.86L139.00-25.08L139.00-25.08Q139.00-27.13 139.03-27.54L139.03-27.54L139.03-27.54Q139.06-27.95 139.42-28.60L139.42-28.60L139.42-28.60Q139.79-29.26 140.78-29.56L140.78-29.56L140.78-29.56Q141.78-29.86 143.11-29.82L143.11-29.82L143.11-29.82Q143.91-29.79 144.60-29.63L144.60-29.63L144.60-29.63Q145.29-29.47 145.79-29.01L145.79-29.01L145.79-29.01Q146.29-28.55 146.45-27.96L146.45-27.96L146.45-27.96Q146.60-27.36 146.60-25.74L146.60-25.74L146.58-20.21L146.58-20.21Q146.56-19.04 146.59-18.86L146.59-18.86L146.59-18.86Q146.62-18.67 146.76-18.58L146.76-18.58L146.76-18.58Q146.89-18.50 147.27-18.63L147.27-18.63L147.27-18.63Q147.40-18.67 148.06-18.99L148.06-18.99L148.06-18.99Q148.71-19.32 149.66-19.59L149.66-19.59L149.66-19.59Q150.61-19.86 151.86-20.05L151.86-20.05L151.86-20.05Q153.11-20.23 154.32-20.20L154.32-20.20L154.32-20.20Q158.22-20 160.65-17.91L160.65-17.91L160.65-17.91Q163.09-15.82 164.15-13.30L164.15-13.30L164.15-13.30Q165.21-10.78 165.18-7.23L165.18-7.23L165.18-7.23Q165.12-3.79 164.16-1.59L164.16-1.59L164.16-1.59Q163.20 0.61 161.49 2.37L161.49 2.37L161.49 2.37Q159.79 4.14 157.94 4.74L157.94 4.74L157.94 4.74Q156.09 5.33 154.73 5.45L154.73 5.45L154.73 5.45Q153.24 5.59 151.94 5.41L151.94 5.41L151.94 5.41Q150.64 5.23 149.55 4.87L149.55 4.87L149.55 4.87Q148.46 4.51 147.69 3.99L147.69 3.99L147.69 3.99Q146.91 3.48 146.60 3.59L146.60 3.59L146.60 3.59Q146.46 3.65 146.33 3.77L146.33 3.77L145.61 4.61L145.61 4.61Q145.20 5.02 144.58 5.21L144.58 5.21L144.58 5.21Q143.96 5.41 142.87 5.39L142.87 5.39L142.87 5.39Q141.80 5.39 141.11 5.21L141.11 5.21L141.11 5.21Q140.43 5.02 139.93 4.60L139.93 4.60L139.93 4.60Q139.43 4.18 139.22 3.58L139.22 3.58L139.22 3.58Q139.00 2.99 139.00 1.86ZM146.52-7.17L146.52-7.17L146.52-7.17Q146.76-4.38 147.82-3.41L147.82-3.41L147.82-3.41Q148.89-2.44 150.02-2.04L150.02-2.04L150.02-2.04Q151.15-1.64 152.17-1.66L152.17-1.66L152.17-1.66Q154.20-1.68 155.35-2.79L155.35-2.79L155.35-2.79Q156.50-3.91 156.88-5.04L156.88-5.04L156.88-5.04Q157.27-6.17 157.29-7.55L157.29-7.55L157.29-7.55Q157.32-8.93 156.93-9.98L156.93-9.98L156.93-9.98Q156.50-11.07 155.33-12.16L155.33-12.16L155.33-12.16Q154.16-13.24 151.81-13.25L151.81-13.25L151.81-13.25Q149.45-13.26 147.97-11.76L147.97-11.76L147.97-11.76Q147.21-11.00 146.80-9.79L146.80-9.79L146.80-9.79Q146.39-8.57 146.52-7.17ZM142.23-29.04L142.23-29.04L142.23-29.04Q141.11-28.96 140.59-28.51L140.59-28.51L140.59-28.51Q140.06-28.05 139.89-27.47L139.89-27.47L139.89-27.47Q139.73-26.89 139.73-25.88L139.73-25.88L139.73-25.88Q139.71-24.71 139.74-23.87L139.74-23.87L139.74-23.87Q139.77-23.03 139.70-22.34L139.70-22.34L139.70-22.34Q139.63-21.66 139.81-21.63L139.81-21.63L139.81-21.63Q140-21.60 140.20-21.78L140.20-21.78L140.20-21.78Q140.37-21.93 140.46-22.46L140.46-22.46L140.46-22.46Q140.55-22.99 140.70-23.29L140.70-23.29L140.70-23.29Q140.86-23.59 141.10-23.62L141.10-23.62L141.10-23.62Q141.35-23.65 141.64-22.85L141.64-22.85L141.64-22.85Q141.80-22.40 141.91-21.86L141.91-21.86L141.91-21.86Q142.03-21.31 142.21-20.45L142.21-20.45L142.21-20.45Q142.38-19.59 142.52-19.61L142.52-19.61L142.52-19.61Q142.68-19.61 142.80-20.07L142.80-20.07L142.80-20.07Q142.93-20.53 143.14-21.55L143.14-21.55L143.14-21.55Q143.36-22.58 143.35-23.09L143.35-23.09L143.35-23.09Q143.34-23.59 143.49-23.87L143.49-23.87L143.49-23.87Q143.63-24.14 143.81-24.15L143.81-24.15L143.81-24.15Q143.98-24.16 144.10-23.51L144.10-23.51L144.10-23.51Q144.22-22.85 144.30-22.84L144.30-22.84L144.30-22.84Q144.38-22.83 144.66-23.44L144.66-23.44L144.66-23.44Q144.94-24.04 145.07-24.05L145.07-24.05L145.07-24.05Q145.20-24.06 145.29-23.11L145.29-23.11L145.35-22.23L145.35-22.23Q145.37-21.84 145.47-21.41L145.47-21.41L145.47-21.41Q145.57-20.98 145.66-21.01L145.66-21.01L145.66-21.01Q145.76-21.04 145.86-21.27L145.86-21.27L145.86-21.27Q145.88-21.37 145.86-21.79L145.86-21.79L145.86-21.79Q145.84-22.21 145.85-22.68L145.85-22.68L145.85-22.68Q145.86-23.14 145.85-24.17L145.85-24.17L145.85-24.17Q145.84-25.20 145.87-26.19L145.87-26.19L145.87-26.19Q145.90-27.19 145.66-27.71L145.66-27.71L145.66-27.71Q145.33-28.38 144.80-28.63L144.80-28.63L144.80-28.63Q144.28-28.89 143.44-28.97L143.44-28.97L143.44-28.97Q142.60-29.06 142.23-29.04ZM146.58-16.84L146.58-16.84L146.58-15.59L146.58-15.59Q146.54-14.67 146.59-14.19L146.59-14.19L146.59-14.19Q146.64-13.71 146.81-13.65L146.81-13.65L146.81-13.65Q146.97-13.59 147.32-14.39L147.32-14.39L147.32-14.39Q147.36-14.51 147.57-15.30L147.57-15.30L147.57-15.30Q147.77-16.09 147.96-16.10L147.96-16.10L147.96-16.10Q148.14-16.11 148.36-15.78L148.36-15.78L148.36-15.78Q148.38-15.72 148.55-14.83L148.55-14.83L148.55-14.83Q148.73-13.95 149.08-14.00L149.08-14.00L149.08-14.00Q149.26-14.02 149.47-14.39L149.47-14.39L149.47-14.39Q149.69-14.77 149.89-15.18L149.89-15.18L149.89-15.18Q150.10-15.59 150.25-15.69L150.25-15.69L150.25-15.69Q150.41-15.80 150.60-15.84L150.60-15.84L150.60-15.84Q150.78-15.88 151.04-15.72L151.04-15.72L151.04-15.72Q151.11-15.64 151.46-15.13L151.46-15.13L151.46-15.13Q151.82-14.61 152.05-14.63L152.05-14.63L152.05-14.63Q152.23-14.63 152.56-15.49L152.56-15.49L152.91-16.27L152.91-16.27Q153.16-16.88 153.35-16.89L153.35-16.89L153.35-16.89Q153.54-16.91 153.83-16.56L153.83-16.56L153.83-16.56Q153.93-16.43 154.20-15.66L154.20-15.66L154.20-15.66Q154.47-14.90 154.74-14.82L154.74-14.82L154.74-14.82Q155-14.75 155.61-15.57L155.61-15.57L155.61-15.57Q155.92-15.98 156.16-16.15L156.16-16.15L156.16-16.15Q156.41-16.33 156.60-16.31L156.60-16.31L156.60-16.31Q156.76-16.27 156.95-16.00L156.95-16.00L156.95-16.00Q157.15-15.72 157.23-15.56L157.23-15.56L157.23-15.56Q157.30-15.39 157.49-14.84L157.49-14.84L157.49-14.84Q157.68-14.30 157.83-13.96L157.83-13.96L157.83-13.96Q157.99-13.61 158.16-13.40L158.16-13.40L158.16-13.40Q158.34-13.18 158.52-13.22L158.52-13.22L158.52-13.22Q158.61-13.22 158.72-13.35L158.72-13.35L158.72-13.35Q158.83-13.48 158.94-13.73L158.94-13.73L158.94-13.73Q159.04-13.98 159.11-14.08L159.11-14.08L159.11-14.08Q159.18-14.18 159.38-14.34L159.38-14.34L159.38-14.34Q159.57-14.49 159.77-14.54L159.77-14.54L159.77-14.54Q159.96-14.59 160.35-14.34L160.35-14.34L160.35-14.34Q160.68-14.08 161.26-13.30L161.26-13.30L161.26-13.30Q161.84-12.52 162.21-11.93L162.21-11.93L162.21-11.93Q162.58-11.35 162.92-11.05L162.92-11.05L162.92-11.05Q163.26-10.76 163.47-10.84L163.47-10.84L163.47-10.84Q163.67-10.92 163.65-11.56L163.65-11.56L163.65-11.56Q163.63-11.88 163.53-12.23L163.53-12.23L163.53-12.23Q163.42-12.58 163.10-13.32L163.10-13.32L163.10-13.32Q162.77-14.06 162.54-14.44L162.54-14.44L162.54-14.44Q162.30-14.82 161.62-15.67L161.62-15.67L161.62-15.67Q160.94-16.52 160.21-17.15L160.21-17.15L160.21-17.15Q159.47-17.77 158.25-18.32L158.25-18.32L158.25-18.32Q157.03-18.87 155.96-19.07L155.96-19.07L155.96-19.07Q154.88-19.28 153.50-19.28L153.50-19.28L153.50-19.28Q151.58-19.26 150.37-18.95L150.37-18.95L150.37-18.95Q149.16-18.63 148.30-18.22L148.30-18.22L148.30-18.22Q147.44-17.81 147.04-17.43L147.04-17.43L147.04-17.43Q146.64-17.05 146.58-16.84Z"></path>
                    </g>
                </g>
            </g>
        </g>
    </g>
</svg>